{
  "accessors": [
    {
      "bufferView": 2,
      "componentType": 5126,
      "count": 353,
      "max": [
        12.680970191955566,
        11.279378890991211,
        193.38558959960938
      ],
      "min": [
        -6.722750663757324,
        -14.175378799438477,
        0.0
      ],
      "type": "VEC3"
    },
    {
      "bufferView": 2,
      "byteOffset": 4236,
      "componentType": 5126,
      "count": 353,
      "max": [
        0.9995027184486389,
        0.9986974596977234,
        0.3851281702518463
      ],
      "min": [
        -0.9982612133026123,
        -0.9991176724433899,
        -0.195529043674469
      ],
      "type": "VEC3"
    },
    {
      "bufferView": 1,
      "componentType": 5126,
      "count": 353,
      "max": [
        1.0,
        1.0
      ],
      "min": [
        0.0,
        0.0
      ],
      "type": "VEC2"
    },
    {
      "bufferView": 0,
      "componentType": 5125,
      "count": 1650,
      "type": "SCALAR"
    },
    {
      "bufferView": 2,
      "byteOffset": 8472,
      "componentType": 5126,
      "count": 1007,
      "max": [
        104.39922332763672,
        95.18316650390625,
        230.62229919433594
      ],
      "min": [
        -95.76657104492188,
        -112.28177642822266,
        37.52937698364258
      ],
      "type": "VEC3"
    },
    {
      "bufferView": 2,
      "byteOffset": 20556,
      "componentType": 5126,
      "count": 1007,
      "max": [
        0.9994105696678162,
        0.9996004104614258,
        0.9947071671485901
      ],
      "min": [
        -0.9984509944915771,
        -0.9960116147994995,
        -0.9605105519294739
      ],
      "type": "VEC3"
    },
    {
      "bufferView": 1,
      "byteOffset": 2824,
      "componentType": 5126,
      "count": 1007,
      "max": [
        1.0,
        1.0
      ],
      "min": [
        0.0,
        0.0
      ],
      "type": "VEC2"
    },
    {
      "bufferView": 0,
      "byteOffset": 6600,
      "componentType": 5125,
      "count": 3141,
      "type": "SCALAR"
    },
    {
      "bufferView": 2,
      "byteOffset": 32640,
      "componentType": 5126,
      "count": 17325,
      "max": [
        103.53907012939453,
        94.71495056152344,
        230.45166015625
      ],
      "min": [
        -96.03827667236328,
        -112.54838562011719,
        24.85356330871582
      ],
      "type": "VEC3"
    },
    {
      "bufferView": 2,
      "byteOffset": 240540,
      "componentType": 5126,
      "count": 17325,
      "max": [
        0.9998024106025696,
        0.9996229410171509,
        0.9998478293418884
      ],
      "min": [
        -0.9999003410339355,
        -0.9999637603759766,
        -0.9996527433395386
      ],
      "type": "VEC3"
    },
    {
      "bufferView": 1,
      "byteOffset": 10880,
      "componentType": 5126,
      "count": 17325,
      "max": [
        1.0,
        1.0
      ],
      "min": [
        0.0,
        0.0
      ],
      "type": "VEC2"
    },
    {
      "bufferView": 0,
      "byteOffset": 19164,
      "componentType": 5125,
      "count": 49005,
      "type": "SCALAR"
    },
    {
      "bufferView": 2,
      "byteOffset": 448440,
      "componentType": 5126,
      "count": 14496,
      "max": [
        109.3306884765625,
        100.57339477539063,
        231.67092895507813
      ],
      "min": [
        -101.40467834472656,
        -116.95983123779297,
        21.73003578186035
      ],
      "type": "VEC3"
    },
    {
      "bufferView": 2,
      "byteOffset": 622392,
      "componentType": 5126,
      "count": 14496,
      "max": [
        0.999002993106842,
        0.9985185861587524,
        0.9992344379425049
      ],
      "min": [
        -0.9990731477737427,
        -0.9993712306022644,
        -0.9989742040634155
      ],
      "type": "VEC3"
    },
    {
      "bufferView": 1,
      "byteOffset": 149480,
      "componentType": 5126,
      "count": 14496,
      "max": [
        1.0,
        1.0
      ],
      "min": [
        0.0,
        0.0
      ],
      "type": "VEC2"
    },
    {
      "bufferView": 0,
      "byteOffset": 215184,
      "componentType": 5125,
      "count": 21744,
      "type": "SCALAR"
    }
  ],
  "asset": {
    "extras": {
      "author": "FerrisAttia (https://sketchfab.com/FerrisAttia)",
      "license": "CC-BY-4.0 (http://creativecommons.org/licenses/by/4.0/)",
      "source": "https://sketchfab.com/3d-models/fantasy-tree-purple-leaves-b6d85e59d1714c7ab3cf40b77a46076f",
      "title": "Fantasy Tree - Purple Leaves"
    },
    "generator": "Sketchfab-12.65.0",
    "version": "2.0"
  },
  "bufferViews": [
    {
      "buffer": 0,
      "byteLength": 302160,
      "name": "floatBufferViews",
      "target": 34963
    },
    {
      "buffer": 0,
      "byteLength": 265448,
      "byteOffset": 302160,
      "byteStride": 8,
      "name": "floatBufferViews",
      "target": 34962
    },
    {
      "buffer": 0,
      "byteLength": 796344,
      "byteOffset": 567608,
      "byteStride": 12,
      "name": "floatBufferViews",
      "target": 34962
    }
  ],
  "buffers": [
    {
      "byteLength": 1363952,
      "uri": "scene.bin"
    }
  ],
  "images": [
    {
      "uri": "textures/01_-_Default_emissive.png"
    }
  ],
  "materials": [
    {
      "doubleSided": true,
      "emissiveFactor": [
        0.08,
        0.08,
        0.08
      ],
      "emissiveTexture": {
        "index": 0
      },
      "name": "01_-_Default",
      "pbrMetallicRoughness": {
        "baseColorFactor": [
          0.4620816568,
          0.1870061323,
          0.520939818,
          1.0
        ],
        "metallicFactor": 0.0,
        "roughnessFactor": 0.6
      }
    },
    {
      "doubleSided": true,
      "name": "Trunk",
      "pbrMetallicRoughness": {
        "baseColorFactor": [
          0.27451,
          0.14902,
          0.0117647,
          1.0
        ],
        "metallicFactor": 0.0,
        "roughnessFactor": 0.6
      }
    },
    {
      "doubleSided": true,
      "name": "Branch0",
      "pbrMetallicRoughness": {
        "baseColorFactor": [
          0.27451,
          0.14902,
          0.0117647,
          1.0
        ],
        "metallicFactor": 0.0,
        "roughnessFactor": 0.6
      }
    },
    {
      "doubleSided": true,
      "name": "Branch1",
      "pbrMetallicRoughness": {
        "baseColorFactor": [
          0.27451,
          0.14902,
          0.0117647,
          1.0
        ],
        "metallicFactor": 0.0,
        "roughnessFactor": 0.6
      }
    }
  ],
  "meshes": [
    {
      "name": "Object_0",
      "primitives": [
        {
          "attributes": {
            "NORMAL": 1,
            "POSITION": 0,
            "TEXCOORD_0": 2
          },
          "indices": 3,
          "material": 1,
          "mode": 4
        }
      ]
    },
    {
      "name": "Object_1",
      "primitives": [
        {
          "attributes": {
            "NORMAL": 5,
            "POSITION": 4,
            "TEXCOORD_0": 6
          },
          "indices": 7,
          "material": 2,
          "mode": 4
        }
      ]
    },
    {
      "name": "Object_2",
      "primitives": [
        {
          "attributes": {
            "NORMAL": 9,
            "POSITION": 8,
            "TEXCOORD_0": 10
          },
          "indices": 11,
          "material": 3,
          "mode": 4
        }
      ]
    },
    {
      "name": "Object_3",
      "primitives": [
        {
          "attributes": {
            "NORMAL": 13,
            "POSITION": 12,
            "TEXCOORD_0": 14
          },
          "indices": 15,
          "material": 0,
          "mode": 4
        }
      ]
    }
  ],
  "nodes": [
    {
      "children": [
        1
      ],
      "matrix": [
        1.0,
        0.0,
        0.0,
        0.0,
        0.0,
        2.220446049250313e-16,
        -1.0,
        0.0,
        0.0,
        1.0,
        2.220446049250313e-16,
        0.0,
        0.0,
        0.0,
        0.0,
        1.0
      ],
      "name": "Sketchfab_model"
    },
    {
      "children": [
        2,
        7
      ],
      "name": "Tree.3DS"
    },
    {
      "children": [
        3
      ],
      "matrix": [
        0.6781651973724365,
        0.0,
        0.0,
        0.0,
        0.0,
        0.6781651973724365,
        0.0,
        0.0,
        0.0,
        0.0,
        0.6781651973724365,
        0.0,
        2.656646728515625,
        1.68896484375,
        0.0,
        1.0
      ],
      "name": "Foliage002"
    },
    {
      "children": [
        4,
        5,
        6
      ],
      "matrix": [
        1.4745669696329424,
        0.0,
        0.0,
        0.0,
        0.0,
        1.4745669696329426,
        0.0,
        0.0,
        0.0,
        0.0,
        1.4745669696329426,
        0.0,
        -3.9174035158525555,
        -2.490491771465014,
        -0.0,
        1.0
      ],
      "name": "3DSMeshMatrix"
    },
    {
      "mesh": 0,
      "name": "Object_4"
    },
    {
      "mesh": 1,
      "name": "Object_5"
    },
    {
      "mesh": 2,
      "name": "Object_6"
    },
    {
      "children": [
        8
      ],
      "matrix": [
        0.6652917861938477,
        0.0,
        0.0,
        0.0,
        0.0,
        0.6652917861938477,
        0.0,
        0.0,
        0.0,
        0.0,
        0.6652917861938477,
        0.0,
        2.656646728515625,
        1.68896484375,
        0.0,
        1.0
      ],
      "name": "Foliage001"
    },
    {
      "children": [
        9
      ],
      "matrix": [
        1.5030998739981853,
        0.0,
        0.0,
        0.0,
        0.0,
        1.5030998739981853,
        0.0,
        0.0,
        0.0,
        0.0,
        1.5030998739981853,
        0.0,
        -3.9932053628895274,
        -2.53868284382799,
        -0.0,
        1.0
      ],
      "name": "3DSMeshMatrix"
    },
    {
      "mesh": 3,
      "name": "Object_9"
    }
  ],
  "samplers": [
    {
      "magFilter": 9729,
      "minFilter": 9987,
      "wrapS": 10497,
      "wrapT": 10497
    }
  ],
  "scene": 0,
  "scenes": [
    {
      "name": "Sketchfab_Scene",
      "nodes": [
        0
      ]
    }
  ],
  "textures": [
    {
      "sampler": 0,
      "source": 0
    }
  ]
}
